
        <svg xmlns="http://www.w3.org/2000/svg" xmlns:xlink="http://www.w3.org/1999/xlink" version="1.1" width="3162.2944056454376" height="1548.8126199468982" viewBox="0 0 3162.2944056454376 1548.8126199468982">
			
			<g transform="scale(8.11472028227187) translate(10, 10)">
				<defs id="SvgjsDefs4590"/><g id="SvgjsG4591" featureKey="monogramFeature-0" transform="matrix(9.388162946294543,0,0,9.388162946294543,10.326980583911478,-70.78673930368097)" fill="#000"><path d="M2.14 13.120000000000001 c0.1 -0.04 -0.04 -0.08 0 -0.18 c0.02 -0.02 0.06 -0.02 0.08 0 c0 -0.24 0.18 -0.42 0.24 -0.66 c0.1 0.02 0.12 -0.04 0.22 -0.1 c-0.26 0.4 -0.36 0.96 -0.7 1.3 c-0.04 0.26 -0.2 0.56 -0.36 0.78 c0 0.06 0.04 0.06 0.04 0.12 c-0.18 0.06 -0.16 0.32 -0.3 0.44 c0.02 0.12 -0.06 0.16 -0.06 0.28 c-0.04 0 -0.06 0 -0.08 -0.02 c-0.3 0.76 -0.62 1.42 -0.96 2.18 c0.04 0.12 -0.02 0.18 0 0.34 c0.06 -0.14 0.2 -0.3 0.14 -0.48 c0.04 -0.02 0.06 -0.02 0.1 0 c0.02 -0.12 0.12 -0.28 0.1 -0.4 c0.02 0 0.02 0.02 0.02 0.06 c0.16 -0.08 0 -0.34 0.16 -0.4 l0 0.06 c-0.02 0.02 -0.04 0.04 -0.04 0.08 c0.04 0.02 0.04 -0.04 0.04 -0.08 c0.02 -0.18 0.22 -0.26 0.2 -0.52 c0.18 -0.04 0.14 -0.32 0.28 -0.38 c-0.02 -0.1 0 -0.12 0 -0.22 c0.24 -0.1 0.16 -0.52 0.4 -0.62 c0.1 -0.44 0.34 -0.78 0.52 -1.16 c0 -0.08 0.02 0 0.08 -0.02 c0.04 -0.24 0.16 -0.4 0.28 -0.56 c0.04 -0.04 -0.02 -0.08 0 -0.16 c0.18 -0.34 0.42 -0.64 0.6 -0.98 c0 -0.04 -0.02 -0.04 -0.04 -0.06 c0.1 -0.02 0.1 -0.3 0.2 -0.26 c0.34 -0.86 0.9 -1.5 1.3 -2.28 c0.06 -0.02 0.08 -0.08 0.14 -0.1 c0.12 -0.38 0.56 -0.54 0.6 -0.9 c-0.12 0.02 -0.16 0.14 -0.18 0.26 c-0.06 0.04 -0.04 0 -0.1 0 c-0.4 0.44 -0.7 0.98 -1.08 1.44 c-0.04 0.16 -0.12 0.3 -0.26 0.34 c0.02 0.16 -0.08 0.18 -0.08 0.3 c-0.02 0 -0.02 -0.02 -0.04 -0.02 l0 -0.06 c-0.04 0 -0.04 0.06 0 0.06 c-0.12 0.32 -0.38 0.6 -0.54 1.02 c-0.06 0 -0.04 -0.06 -0.08 -0.06 c0.02 0.24 -0.12 0.38 -0.22 0.6 c-0.22 -0.04 -0.02 -0.38 0.12 -0.4 c0 -0.06 -0.02 -0.16 0.06 -0.12 c0 -0.2 0.08 -0.22 0.1 -0.34 c0.04 0 0.06 0.02 0.08 0.02 c0.16 -0.5 0.48 -0.84 0.7 -1.3 c0.02 0 0.02 0.04 0.04 0.06 c0.06 -0.14 0.1 -0.3 0.2 -0.42 c0.02 0 0.02 0.04 0.04 0.06 c0.04 -0.22 0.2 -0.32 0.26 -0.54 c0.04 0 0.08 0.02 0.1 0.04 c0.08 -0.4 0.46 -0.66 0.68 -1 l0.08 0 c0.16 -0.3 0.44 -0.48 0.78 -0.62 c0.34 0.06 0.76 0.06 1 0.22 c0.02 0.06 -0.12 -0.02 -0.1 0.04 c0.12 0.06 0.24 0.12 0.34 0.2 c0.16 0.36 0.24 0.8 0.32 1.24 c-0.06 0.56 -0.12 1.24 -0.1 1.74 c-0.06 0.06 -0.04 0.18 -0.12 0.22 c-0.02 0.06 0.04 0.04 0.08 0.06 c-0.18 0.12 -0.06 0.38 -0.2 0.54 c0.14 0.32 -0.08 0.62 0 0.9 c-0.18 0.28 -0.1 0.66 -0.22 1.08 c0 0.04 -0.02 0.06 -0.06 0.06 c0.14 0.22 -0.08 0.52 -0.04 0.86 c-0.04 0 -0.04 -0.04 -0.06 -0.06 c0 0.22 0.04 0.5 -0.1 0.68 c0.04 0.32 -0.18 0.62 -0.08 0.82 c-0.22 1.04 -0.24 1.92 -0.48 3.04 c0 0.06 0.04 0.06 0.06 0.08 c0 0.08 -0.04 0.14 -0.08 0.18 c0 0.06 0.04 0.1 0.02 0.18 c-0.12 0.56 -0.06 1.08 -0.18 1.56 c0.02 1.66 -0.28 2.86 0.26 4.18 c0.1 0.06 0.2 0.2 0.2 0.32 c-0.06 0.02 -0.14 0.04 -0.24 0.06 c-0.16 -0.14 -0.56 -0.26 -0.48 -0.46 l-0.12 0 c-0.5 -0.92 -0.52 -2.1 -0.4 -3.14 c-0.1 -0.16 -0.04 -0.36 0.04 -0.56 c-0.02 -0.04 -0.08 -0.02 -0.08 -0.06 c0.1 -0.46 0.12 -0.82 0.08 -1.24 c0.08 -0.52 0.2 -1.24 0.24 -1.84 c0.04 -0.7 0.18 -1.4 0.3 -2.08 c0 -0.1 0 -0.18 -0.02 -0.24 c0.36 -1.78 0.6 -3.58 0.8 -5.14 c0.08 -0.9 0.24 -1.52 0.18 -2.38 c-0.04 -0.16 -0.06 -0.38 -0.12 -0.58 c-0.56 0.16 -0.78 0.66 -1.18 0.98 c-1.16 1.56 -2.08 3.34 -3 5.14 c-0.18 0.56 -0.5 1 -0.66 1.58 c-0.12 0 -0.06 0.14 -0.14 0.16 c-0.02 0.08 -0.02 0.06 0 0.16 c-0.66 1.32 -1.38 2.88 -1.72 4.4 c0.06 0.28 -0.1 0.44 -0.06 0.8 c-0.08 0.16 -0.14 0.32 -0.14 0.52 c-0.08 0 -0.12 0.04 -0.22 0.02 c-0.02 -0.08 -0.06 -0.12 -0.06 -0.22 c-0.16 0.02 0.02 0.18 -0.04 0.24 c-0.3 -0.22 -0.28 -0.48 -0.52 -0.72 c0.4 -3.36 1.1 -6.54 1.36 -9.68 c0.1 -0.68 0.1 -1.34 -0.02 -2.1 c-0.08 -0.18 -0.4 -0.32 -0.26 -0.56 c0.1 0.08 0.16 0 0.24 0.02 c0.2 0.08 0.2 0.34 0.48 0.3 c0.46 0.4 0.48 1.48 0.42 2.1 c-0.06 1.64 -0.38 3.34 -0.64 4.8 c0.04 0.22 -0.04 0.3 -0.06 0.48 c0.4 -0.68 0.62 -1.4 1.04 -2.04 c0.06 -0.26 0.16 -0.5 0.34 -0.66 c-0.02 -0.1 0.02 -0.12 0.02 -0.2 c0.08 -0.02 0.04 0.08 0.1 0.02 c-0.06 -0.14 0.12 -0.38 0.22 -0.44 z M5.52 8.12 c0.08 -0.02 0.14 -0.18 0.12 -0.22 c-0.04 0.08 -0.2 0.12 -0.12 0.22 z M5.38 8.16 l0.04 0 l0 -0.04 l-0.04 0 l0 0.04 z M7.26 8.28 c-0.02 0.14 0.02 -0.08 0 0 l0 0 z M7.36 8.72 c-0.02 0.14 0.02 -0.1 0 0 l0 0 z M5.18 8.86 c-0.08 0 0.02 0.1 0 0 l0.04 0 l0 -0.04 c-0.04 -0.02 -0.04 0.02 -0.04 0.04 z M5.06 9.08 c0.02 -0.06 0.04 -0.08 0.08 -0.12 c-0.1 -0.02 -0.16 0.1 -0.08 0.12 z M4.92 9.28 c0 -0.06 0.04 -0.08 0.02 -0.16 l-0.08 0 c-0.04 0.04 -0.04 0.18 0.06 0.16 z M4.8 9.44 c0.02 -0.04 0.04 -0.12 -0.02 -0.12 c-0.02 0.06 -0.04 0.08 0.02 0.12 z M7.3 9.58 c-0.02 -0.04 0.02 -0.16 -0.06 -0.14 c0.02 0.04 -0.04 0.16 0.06 0.14 z M6.98 9.58 c0.02 -0.02 0.06 -0.12 -0.02 -0.1 c0 0.04 -0.02 0.1 0.02 0.1 z M7.12 10.92 c0.14 -0.14 0.12 -0.46 0.1 -0.64 c0.06 -0.18 0.14 -0.5 0 -0.62 c0.02 0.42 -0.1 0.82 -0.1 1.26 z M4.38 10.02 c0.08 -0.06 0.26 -0.26 0.18 -0.34 c-0.04 0.14 -0.14 0.2 -0.18 0.34 z M4.18 10.36 c-0.2 0.16 -0.28 0.46 -0.46 0.64 c0.02 -0.04 0.02 -0.06 -0.02 -0.04 c0 0.2 -0.08 0.3 -0.2 0.38 l0 0.12 c-0.3 0.46 -0.5 0.86 -0.74 1.36 c-0.06 0 -0.06 0.02 -0.1 0.02 c0 0.24 -0.06 0.26 -0.1 0.44 c0.32 -0.26 0.32 -0.8 0.62 -1.06 c0.04 -0.14 0.04 -0.3 0.18 -0.34 c0.08 -0.38 0.36 -0.58 0.48 -0.96 c0.06 0 0.08 -0.06 0.14 -0.08 c0.02 -0.22 0.12 -0.32 0.2 -0.48 c0.1 -0.04 0.18 -0.24 0.16 -0.32 c-0.06 0.1 -0.14 0.18 -0.16 0.32 z M6.94 10.14 c0 0.02 -0.02 -0.02 0 0 l0 0 z M7 10.16 c-0.06 0.08 0.08 -0.06 0 0 l0 0 z M6.86 10.26 c0 -0.02 0 -0.04 0.02 -0.02 c0 -0.04 0 -0.06 -0.04 -0.06 c0 0.04 -0.02 0.08 0.02 0.08 z M7.26 10.3 c0.04 0.1 0.04 -0.1 0 0 l0 0 z M6.78 10.76 c0.02 -0.08 0.1 -0.24 0 -0.26 c0.04 0.1 -0.06 0.2 0 0.26 z M7.3 10.6 c-0.06 0.08 0.08 -0.06 0 0 l0 0 z M6.88 10.66 c0.02 0.02 0 0 0 0 l0 0 z M6.94 10.68 c0.02 0.1 0.02 -0.08 0 0 l0 0 z M6.72 11.02 c0.06 0.04 0.06 -0.1 0.02 -0.1 c0 0.04 -0.04 0.06 -0.02 0.1 z M7.12 11.38 c0.04 -0.06 0.06 -0.26 -0.04 -0.26 c0 0.14 -0.06 0.2 0.04 0.26 z M6.7 11.34 c0.08 0 0.08 -0.08 0.08 -0.18 l-0.06 0 c0 0.08 -0.02 0.12 -0.02 0.18 z M6.7 11.64 c0.06 0.02 0.08 -0.24 0.02 -0.2 c-0.06 0.06 0.02 0.16 -0.02 0.2 z M6.9 12.04 l0 -0.06 c-0.12 0.02 0 0.16 -0.12 0.2 c0.06 0.06 0.02 0.1 0.06 0.16 c0.04 -0.02 -0.02 -0.12 0.06 -0.1 c0 -0.04 -0.04 -0.08 -0.02 -0.16 c0.12 0.08 0.08 -0.18 0.14 -0.26 c-0.2 0.04 0.02 -0.2 -0.12 -0.22 c0.02 0.1 -0.02 0.16 -0.02 0.24 c0.04 0 0.06 0.02 0.08 0.04 c-0.06 0.02 0 0.14 -0.06 0.16 z M7.12 11.62 c0.02 0.02 0 0 0 0 l0 0 z M6.66 12.04 c0 -0.1 0.04 -0.14 0.06 -0.22 l-0.08 0 c0.02 0.1 -0.08 0.18 0.02 0.22 z M7.1 12.04 l0.04 0 l0 -0.06 l-0.04 0 l0 0.06 z M6.6 12.48 c0.04 -0.04 0.02 -0.16 -0.02 -0.18 c-0.06 0.04 -0.04 0.16 0.02 0.18 z M6.28 15.64 c-0.06 0.02 -0.06 0.22 0 0.26 c0.02 -0.06 0.04 -0.18 0 -0.26 c0.1 -0.02 0 0.18 0.08 0.2 c0.14 -0.9 0.26 -1.72 0.34 -2.56 c0 -0.06 0.08 -0.04 0.06 -0.12 c0 -0.36 0.14 -0.58 0.08 -0.76 c-0.14 -0.02 -0.02 0.08 -0.06 0.18 c-0.08 0.14 -0.06 0.42 -0.14 0.58 c-0.08 0.8 -0.26 1.72 -0.38 2.42 c0.02 0 0.02 0.04 0.02 0.06 z M6.54 12.68 c0.02 0.02 0 -0.02 0 0 l0 0 z M7.06 13 c0 0 -0.02 -0.02 0 0 l0 0 z M6.48 13.08 l0.04 0 l0 -0.04 l-0.04 0 l0 0.04 z M6.48 13.280000000000001 c0.04 -0.04 -0.04 -0.08 0.02 -0.12 c-0.1 -0.02 -0.1 0.12 -0.02 0.12 z M2.38 13.440000000000001 l0 0.22 c0.06 -0.04 0.22 -0.24 0.12 -0.3 c-0.02 0.06 -0.06 0.14 -0.12 0.08 z M6.46 13.379999999999999 c0 0.02 -0.02 -0.02 0 0 l0 0 z M6.38 13.84 c-0.06 -0.1 0.02 -0.16 0.04 -0.22 c-0.08 -0.04 0.02 -0.1 -0.06 -0.12 c0.06 0.14 -0.14 0.3 0.02 0.34 z M1.8 14.82 c0.26 -0.28 0.36 -0.72 0.58 -1.04 c-0.02 -0.02 -0.02 -0.06 -0.06 -0.04 c-0.22 0.3 -0.36 0.66 -0.52 1.08 z M6.34 14 c0.02 0.1 0.02 -0.1 0 0 l0 0 z M6.9 14.120000000000001 l0.06 0 l0 -0.04 l-0.06 0 l0 0.04 z M6.26 14.219999999999999 c-0.08 0.08 0.08 0.06 0 0 l0 0 z M6.74 14.24 c0.02 0.1 0.02 -0.1 0 0 l0 0 z M6.28 14.4 c0.02 0.02 0 0 0 0 l0 0 z M6.22 14.48 c0.02 0.1 0.02 -0.1 0 0 l0 0 z M6.22 14.84 c0 -0.04 0.04 -0.06 0.04 -0.12 c-0.1 -0.04 -0.14 0.1 -0.04 0.12 z M6.12 15.059999999999999 l0.06 0 c0 -0.04 0.04 -0.12 -0.04 -0.1 c0 0.04 -0.04 0.04 -0.02 0.1 z M1.68 15.059999999999999 c0.02 0.08 0.06 -0.1 0 0 l0 0 z M1.46 15.52 c0.1 -0.1 0.18 -0.22 0.22 -0.4 c-0.2 0.04 -0.12 0.24 -0.22 0.4 z M1.26 15.879999999999999 c0.1 -0.02 0.2 -0.14 0.12 -0.22 c-0.04 0.06 -0.1 0.12 -0.12 0.22 z M6.48 15.940000000000001 c0.04 0 0.08 -0.02 0.06 -0.06 c-0.06 -0.02 -0.04 0.04 -0.06 0.06 z M6.04 17.1 l-0.02 0 c0 0.06 0 0.12 0.04 0.06 c0 0.06 -0.04 0.08 0.04 0.1 c0.02 -0.04 -0.02 -0.06 0.02 -0.14 c-0.04 0 -0.08 0 -0.08 -0.02 c0.04 -0.06 0.08 0.02 0.1 -0.06 c-0.02 0 -0.02 -0.02 -0.04 -0.02 c0.08 -0.34 0.1 -0.7 0.26 -1.02 c-0.06 -0.02 -0.06 -0.06 -0.12 -0.06 c-0.1 0.32 -0.14 0.76 -0.2 1.16 z M6.02 16.02 c-0.06 0.08 0.08 -0.06 0 0 l0 0 z M1.2 16.04 c0.02 0.08 0.06 -0.1 0 0 l0 0 z M5.94 16.04 c0.04 0.1 0.04 -0.1 0 0 l0 0 z M0.18 16.12 c-0.08 0.22 -0.14 0.54 -0.08 0.76 c0.04 -0.24 0.06 -0.42 0.08 -0.76 c0.02 -0.02 0.04 -0.06 0.06 -0.08 c-0.06 -0.02 -0.06 0.04 -0.06 0.08 z M6.46 16.14 c0 0.02 -0.02 -0.02 0 0 l0 0 z M1.06 16.4 c0 -0.02 0.04 -0.1 0 -0.1 c-0.02 0.02 -0.06 0.1 0 0.1 z M6.3 16.32 c0.02 0.02 0 0 0 0 l0 0 z M5.86 17.12 c0 0.02 -0.02 -0.02 0 0 l0 0 z M6.22 17.32 l0 -0.2 c-0.08 -0.02 -0.08 0.22 0 0.2 z M0 17.4 c-0.02 -0.08 0.06 -0.2 -0.02 -0.24 c0 0.08 -0.04 0.22 0.02 0.24 z M6 17.240000000000002 c0.02 0.1 0.02 -0.1 0 0 l0 0 z M5.78 17.259999999999998 c0.02 0.1 0.02 -0.1 0 0 l0 0 z M6.06 17.44 c0.02 -0.02 0.06 -0.16 -0.02 -0.12 c0.02 0.02 -0.02 0.12 0.02 0.12 z M6.16 17.48 c0 -0.02 0.06 -0.1 0 -0.1 c0 0.02 -0.06 0.1 0 0.1 z M6.02 17.58 c0.02 0.08 0.02 -0.1 0 0 l0 0 z M5.7 17.68 c0.08 0.02 0.08 -0.12 0 -0.08 l0 0.08 z M6.22 17.72 l0.04 0 l0 -0.04 l-0.04 0 l0 0.04 z M5.98 17.740000000000002 l0 0 c0 -0.1 -0.04 0.14 0 0 z M6.22 17.8 c0.02 0.08 0.02 -0.1 0 0 l0 0 z M5.76 17.86 c0.02 0.1 0.02 -0.1 0 0 l0 0 z M5.94 17.92 c0.08 0.02 0.08 -0.12 0 -0.08 l0 0.08 z M6.18 17.98 c0.08 0.04 0.08 -0.1 0 -0.06 l0 0.06 z M-0.44 18.18 c0 -0.04 0.02 -0.06 0.02 -0.08 l-0.04 0 c-0.02 0.04 -0.02 0.06 0.02 0.08 z M6.04 18.16 c0.02 0.08 0.02 -0.1 0 0 l0 0 z M5.68 18.28 c0.08 0.02 0.06 -0.14 0.02 -0.12 c-0.02 0.02 -0.02 0.06 -0.02 0.12 z M6.14 18.18 c0.04 0.08 0.06 -0.1 0 0 l0 0 z M5.92 18.2 l0 0.04 c0.06 0.04 0.08 -0.08 0.02 -0.06 c0 0 0 0.02 -0.02 0.02 z M5.9 18.32 l0 0.04 c0.06 0.04 0.06 -0.08 0.02 -0.06 c0 0 0 0.02 -0.02 0.02 z M5.56 18.72 c0.04 0.12 -0.02 0.3 0.12 0.3 c0 -0.02 0 -0.06 0.02 -0.06 c-0.08 -0.12 0.1 -0.26 -0.02 -0.44 c0.04 0.02 0.06 0.02 0.08 -0.04 c-0.06 -0.02 -0.02 -0.12 -0.12 -0.08 c-0.06 0.12 0 0.36 -0.08 0.32 z M6 18.48 c0.06 0.04 0.06 -0.1 0 -0.06 l0 0.06 z M6.1 18.46 l0.04 0 l0 -0.04 l-0.04 0 l0 0.04 z M-0.22 18.58 c0.08 0.04 0.06 -0.12 0.02 -0.12 c-0.02 0.04 -0.02 0.06 -0.02 0.12 z M6.14 18.66 c0 0 -0.02 -0.06 -0.02 0 c-0.04 0.16 0.02 0.1 0.02 0 z M5.88 19.06 c-0.04 -0.08 0.04 -0.28 -0.06 -0.28 c0.02 0.12 0 0.24 0.06 0.28 z M5.98 19.04 c-0.02 -0.04 0.02 -0.12 -0.06 -0.1 c0 0.06 0 0.1 0.06 0.1 z M6.06 19 l0 0.02 c-0.1 0.12 0.12 -0.04 0 -0.02 z M5.5 19.32 c0 0.06 0.02 0.12 0.02 0.2 c-0.08 0.22 -0.1 0.46 -0.08 0.7 c-0.02 0.04 -0.04 0.08 -0.04 0.14 c0 0.3 -0.08 0.56 -0.02 0.8 c-0.08 0.3 -0.04 0.62 -0.1 0.96 c0.04 0.4 -0.02 0.72 0 1.22 c0.06 0.06 -0.06 0.18 0.06 0.18 c0.06 -0.28 -0.04 -0.7 0.06 -0.98 c-0.1 -0.12 0.02 -0.34 -0.06 -0.4 c0.08 -0.3 0.1 -0.56 0.06 -0.9 c0.12 -0.26 -0.04 -0.64 0.14 -0.8 c-0.04 -0.44 0.02 -0.84 0.12 -1.38 c-0.04 0 -0.04 -0.02 -0.08 -0.02 c-0.06 0.08 0 0.2 -0.08 0.28 z M5.92 19.24 c0.02 0 0 -0.02 0 0 l0 0 z M5.9 19.52 c0.02 -0.04 0.02 -0.1 -0.02 -0.1 c0 0.06 -0.06 0.08 0.02 0.1 z M6 19.48 c0 0 -0.02 -0.02 0 0 l0 0 z M5.88 19.6 c0.02 0.08 0.02 -0.1 0 0 l0 0 z M6.02 19.66 c0.02 -0.02 0.06 -0.12 -0.02 -0.1 c0 0.04 -0.02 0.1 0.02 0.1 z M5.76 19.66 c0.02 0.08 0.06 -0.1 0 0 l0 0 z M6 19.74 l0 0 c0.04 -0.12 -0.06 0.12 0 0 z M5.86 19.78 c0 0.02 -0.02 0 0 0 l0 0 z M5.7 19.98 c0.04 0.08 0.04 -0.1 0 0 l0 0 z M5.82 20.04 l-0.02 0 c0 0.14 -0.04 0.24 0 0.36 c0.04 -0.12 0.06 -0.24 0.02 -0.36 c0.04 0 0.06 -0.04 0.06 -0.08 c-0.08 -0.04 -0.04 0.04 -0.06 0.08 z M5.68 20.2 c0.04 0.08 0.06 -0.1 0 0 l0 0 z M5.94 20.24 c0.02 0.02 0 -0.02 0 0 l0 0 z M5.7 20.32 c0 -0.02 0 -0.04 0.04 -0.04 c-0.02 -0.02 -0.02 -0.04 -0.06 -0.04 c0 0.02 0 0.06 0.02 0.08 z M5.98 20.36 c0 -0.04 -0.02 -0.06 -0.06 -0.08 c0 0.04 0 0.1 0.06 0.08 z M5.68 20.36 c0.02 0.1 0.02 -0.1 0 0 l0 0 z M5.76 20.46 l0 0.04 c0.06 0.04 0.06 -0.08 0.02 -0.06 c0 0 0 0.02 -0.02 0.02 z M5.9 20.58 l0.04 0 l0 -0.06 l-0.04 0 l0 0.06 z M5.88 20.68 l0 0.04 c0.06 0.04 0.06 -0.08 0.02 -0.08 c0 0.02 0 0.04 -0.02 0.04 z M5.66 20.8 c0.02 0.08 0.02 -0.1 0 0 l0 0 z M5.78 21.32 c0.04 0 0.08 0 0.08 -0.04 l-0.06 0 c0 0.02 -0.02 0.02 -0.02 0.04 z M5.74 21.3 c-0.02 0 -0.06 0 -0.06 0.02 c0.02 0 0.04 0 0.06 -0.02 z M5.68 21.42 c0.02 0 0.04 0.02 0.06 0.02 c-0.02 -0.04 0 -0.08 -0.06 -0.08 l0 0.06 z M5.62 21.42 c-0.06 0.08 0.08 -0.06 0 0 l0 0 z M5.76 21.46 c-0.02 0 -0.06 0 -0.06 0.02 c0.02 0 0.06 0 0.06 -0.02 z M5.86 22.759999999999998 c0 0.02 -0.02 -0.02 0 0 l0 0 z M5.28 23.6 l0 0.04 l0.06 0 l0 -0.06 l-0.04 0 c0 0 0 0.02 -0.02 0.02 z M5.54 23.740000000000002 c0.06 0.04 0.06 -0.1 0 -0.06 l0 0.06 z M5.4 24.22 c-0.04 -0.2 0.02 -0.36 -0.1 -0.52 c0.04 0.2 -0.02 0.44 0.1 0.52 z M5.64 23.740000000000002 l0.04 0 l0 -0.04 l-0.04 0 l0 0.04 z M5.54 23.94 c0.04 0.08 0.06 -0.1 0 0 l0 0 z M5.78 24.08 c-0.06 0.08 0.08 -0.06 0 0 l0 0 z M5.44 24.56 c0 -0.06 0 -0.1 -0.04 -0.1 c0 0.04 -0.04 0.12 0.04 0.1 z M5.5 24.7 c-0.02 -0.04 -0.02 -0.08 -0.06 -0.1 c0 0.04 -0.02 0.12 0.06 0.1 z M5.56 25.12 c0.02 0 0 -0.02 0 0 l0 0 z M6.9 12.04 c0 0 -0.02 0.02 -0.02 0 l0.02 0 z M2.14 13.120000000000001 c-0.08 -0.02 0.02 -0.1 0 0 l0 0 z M6.1 17.02 c0 0.04 -0.04 0.02 0 0 l0 0 z M5.66 18.8 l0 0 c0.02 0.02 -0.02 -0.02 0 0 z"/></g><g id="SvgjsG4592" featureKey="J3GnXt-0" transform="matrix(6.667456957927425,0,0,6.667456957927425,90.99881456310887,-15.941499603760306)" fill="#000"><path d="M7.7 14.440000000000001 c-0.04 -1.48 -0.4 -2.92 -1.78 -2.92 c-1.24 0 -2.06 1.38 -2.06 3.8 c0 1.32 0.02 3 0.02 4.68 c-1.14 0.12 -1.6 -0.16 -2.36 0 c0.1 -3.16 0.14 -5.6 -0.02 -8.96 l0.52 -0.42 c-0.02 2.18 1.42 3.02 1.42 3.02 c0.52 -1.74 1.6 -3.3 3.22 -3.3 c2.1 0 3.38 1.46 3.38 4.3 c0 1.68 0.04 3.48 0.04 5.36 c-1.12 0.14 -1.46 -0.14 -2.36 0 c0.06 -1.98 0.04 -3.94 -0.02 -5.56 z M12.6 18.06 c0 -2.1 2.44 -3.56 6.02 -3.78 c0 -1.62 -0.12 -3.3 -1.72 -3.3 c-1.04 0 -1.72 0.68 -1.72 1.54 c0 0.42 0 1.16 0.46 1.2 l-0.26 0.14 c-1.44 -0.1 -1.44 -1.08 -2.56 -0.92 c0.34 -1.42 1.74 -2.6 4.14 -2.6 c2.42 0 3.86 1.18 3.86 3.94 l0 5.72 l-0.86 0 c-0.12 -2.92 -1 -3.6 -1 -3.6 c-0.32 1.22 -1.32 3.88 -3.78 3.88 c-1.5 0 -2.58 -0.82 -2.58 -2.22 z M18.6 14.96 c-2.42 0.22 -3.64 1.36 -3.64 2.68 c0 0.9 0.56 1.34 1.22 1.34 c1.36 0 2.3 -1.82 2.42 -4.02 z M28.06 20 c-0.82 0.08 -0.98 -0.26 -1.84 0 c-0.82 -2.46 -2.6 -7.12 -3.6 -9.38 c1.28 -0.26 1.64 0.38 2.76 0 c0.6 1.96 1.46 4.88 2.28 7.58 c0.92 -2.72 1.84 -5.74 2.4 -7.58 c0.62 0.22 0.88 -0.14 1.64 0 c-0.96 2.12 -2.62 6.54 -3.64 9.38 z M38.16 20 c-0.82 0.08 -0.98 -0.26 -1.84 0 c-0.82 -2.46 -2.6 -7.12 -3.6 -9.38 c1.28 -0.26 1.64 0.38 2.76 0 c0.6 1.96 1.46 4.88 2.28 7.58 c0.92 -2.72 1.84 -5.74 2.4 -7.58 c0.62 0.22 0.88 -0.14 1.64 0 c-0.96 2.12 -2.62 6.54 -3.64 9.38 z"/></g>
			</g>
		</svg>
	