<svg width="500" height="556" viewBox="0 0 500 556" fill="none" xmlns="http://www.w3.org/2000/svg">
<g filter="url(#filter0_d_7_15)">
<path d="M334.202 193.776C334.624 192.635 334.976 191.709 335.256 190.713C336.582 185.522 336.265 180.431 335.089 175.213C333.4 167.952 330.143 161.427 326.101 155.27C319.39 145.126 310.83 136.572 301.134 129.313C286.769 118.526 270.851 110.883 253.521 106.096C243.781 103.438 233.977 101.844 223.899 102.237C220.254 102.373 216.682 102.861 213.112 103.491C211.041 103.882 209.045 104.909 207.049 105.794C206.336 106.09 205.623 106.386 205.047 105.83C204.687 105.341 204.325 104.569 204.321 104.002C204.384 102.656 205.308 101.719 206.449 101.274C208.731 100.243 210.939 98.9996 213.367 98.5315C217.294 97.6826 221.294 97.1864 225.369 97.0427C233.086 96.48 240.885 97.4024 248.473 99.1073C274.962 105.146 298.129 117.261 317.477 136.241C326.108 144.723 333.173 154.365 337.604 165.683C341.454 175.595 343.017 185.548 338.935 196.098C339.724 196.579 340.513 196.919 341.23 197.331C350.625 202.189 359.597 207.904 367.647 214.839C375.481 221.565 382.319 229.159 386.952 238.42C388.4 241.367 389.562 244.461 390.439 247.56C394.465 262.849 388.543 276.263 374.579 284.158C369.52 287.009 364.098 288.805 358.458 290.109C347.464 292.571 336.313 292.912 325.156 292.262C322.081 292.105 319.076 291.734 315.929 291.507C315.285 291.448 314.713 291.458 313.784 291.404C314.076 292.389 314.296 293.306 314.515 294.081C316.777 301.473 317.824 309.099 316.8 316.833C315.572 326.483 311.548 334.837 304.154 341.481C299.746 345.383 294.829 348.09 289.265 350.03C280.49 353.089 271.416 353.888 262.191 353.558C260.975 353.509 259.76 353.46 258.329 353.344C258.335 354.335 258.412 355.253 258.418 356.103C258.757 364.733 256.948 372.835 251.701 380.008C247.945 385.242 242.963 389.012 237.19 391.876C229.777 395.548 221.996 397.316 213.85 398.028C202.561 399.079 191.402 398.146 180.378 395.794C179.519 395.668 178.589 395.473 177.515 395.279C177.593 396.34 177.669 397.117 177.747 398.036C178.805 407.361 179.434 416.694 178.634 426.052C178.303 430.376 177.614 434.636 176.782 438.898C176.23 442.023 175.033 445.088 173.191 447.811C171.846 449.888 170.564 450.76 168.565 451.22C168.564 451.079 168.491 450.868 168.491 450.868C170.838 448.773 171.893 445.993 172.662 443.077C173.849 438.596 174.25 434.059 174.366 429.526C174.723 417.911 173.794 406.318 172.222 394.808C172.149 394.597 172.076 394.386 172.002 393.891C171.357 393.691 170.64 393.42 169.853 393.222C150.802 387.616 133.446 378.724 118.071 366.399C109.881 359.891 102.614 352.447 97.4108 343.337C95.5322 340.115 94.1536 336.812 93.2021 333.219C92.5417 330.47 92.3103 327.713 92.6508 324.947C93.5422 318.772 96.9473 314.464 102.796 312.236C106.861 310.677 111.008 310.602 115.3 311.092C124.1 312.138 131.913 315.467 139.163 320.222C155.243 330.977 165.986 345.721 171.176 364.246C173.223 371.571 174.486 379.265 176.104 386.739C176.252 387.586 176.401 388.433 176.549 389.28C176.836 389.416 176.98 389.555 177.194 389.622C190.296 392.715 203.602 394.034 217.103 392.165C224.746 391.108 231.954 389.068 238.577 384.914C249.473 377.995 254.691 366.292 252.75 352.877C252.034 352.748 251.104 352.553 250.245 352.426C233.285 349.827 217.382 344.59 202.672 335.863C196.573 332.22 190.9 328.145 186.078 322.922C183.272 319.929 180.678 316.719 179.225 312.922C178.354 310.814 177.697 308.49 177.54 306.227C177.079 300.997 179.769 296.702 184.616 294.35C187.396 293.097 190.324 292.549 193.326 292.495C198.473 292.403 203.484 293.446 208.284 295.13C219.604 299.034 229.295 305.444 237.639 313.789C246.991 323.108 253.777 333.888 257.002 346.855C257.075 347.066 257.148 347.277 257.294 347.699C257.937 347.758 258.653 347.887 259.297 347.946C266.807 348.449 274.383 348.172 281.808 346.482C287.591 345.175 292.939 343.027 297.779 339.543C304.399 334.823 308.578 328.448 310.461 320.699C311.997 314.725 312.102 308.635 310.921 302.569C310.256 299.112 309.164 295.804 308.285 292.422C307.918 290.942 306.985 290.322 305.411 290.067C294.677 288.418 284.224 285.915 273.98 282.63C258.293 277.743 243.099 271.502 229.105 262.903C222.287 258.707 215.967 254.007 210.569 248.086C207.905 245.09 205.598 241.875 204.359 238.004C202.39 231.739 205.002 226.383 211.207 223.936C212.918 223.197 214.774 222.74 216.632 222.565C219.561 222.3 222.421 222.249 225.282 222.481C231.648 223.004 237.878 224.663 243.825 226.892C264.748 234.588 282.624 246.656 297.098 263.599C302.427 269.875 306.974 276.801 310.451 284.243C310.958 285.296 311.463 286.065 312.894 286.181C324.341 287.534 335.712 288.251 347.215 286.983C353.788 286.3 360.214 285.052 366.348 282.677C369.914 281.339 373.335 279.579 376.324 277.26C384.08 271.388 387.464 263.682 386.762 254.138C386.22 247.282 383.537 241.171 379.927 235.431C375.09 227.802 368.831 221.472 361.719 215.865C354.391 210.05 346.498 205.236 338.107 201.068C337.677 200.792 337.247 200.658 336.674 200.527C336.248 200.959 335.821 201.25 335.538 201.68C331.849 206.418 327.223 209.828 321.588 211.84C317.878 213.18 314.025 214.382 310.168 215.017C293.67 217.648 277.785 215.384 262.588 208.718C259.075 207.153 255.702 205.16 252.969 202.519C252.106 201.685 251.243 200.851 250.451 199.945C245.769 194.153 247.016 187.76 253.283 183.684C255.918 182.009 258.843 181.036 261.842 180.416C266.553 179.341 271.413 179.112 276.347 179.237C288.717 179.511 300.743 181.986 312.42 185.812C318.938 187.89 325.246 190.609 331.623 192.972C332.553 193.026 333.342 193.366 334.202 193.776ZM171.535 387.812C171.017 384.919 170.573 382.378 170.056 379.769C168.36 371.375 166.45 363.056 162.899 355.262C156.016 340.307 145.577 328.531 131.016 320.651C125.636 317.703 119.833 315.754 113.611 315.369C110.606 315.14 107.676 315.263 104.752 316.377C100.615 318.009 98.0592 320.886 97.7292 325.351C97.5993 327.477 97.6132 329.742 98.2692 331.783C99.1452 334.741 100.307 337.693 101.825 340.427C106.162 348.136 112.207 354.54 118.962 360.224C133.694 372.632 150.478 381.534 168.958 387.292C169.674 387.42 170.461 387.477 171.535 387.812ZM305.163 284.621C304.873 283.918 304.799 283.565 304.582 283.215C301.689 277.745 298.297 272.638 294.408 267.894C284.468 255.897 272.47 246.272 258.769 238.801C249.516 233.798 239.912 229.864 229.463 228.069C226.099 227.492 222.595 227.343 219.164 227.404C217.019 227.442 214.878 228.047 212.81 228.862C209.815 230.049 208.758 232.545 209.563 235.575C209.929 237.055 210.581 238.388 211.375 239.719C213.615 243.572 216.709 246.702 220.086 249.544C225.189 253.913 230.717 257.707 236.671 260.928C257.546 272.518 279.969 279.974 303.517 284.438C303.875 284.502 304.376 284.564 305.163 284.621ZM251.927 346.875C251.779 346.17 251.776 345.603 251.558 345.112C250.686 342.721 250.027 340.255 248.941 337.938C242.707 324.034 232.704 313.382 219.786 305.401C213.471 301.55 206.876 298.695 199.505 297.482C196.142 296.905 192.781 296.752 189.354 297.522C183.786 298.895 181.45 302.689 182.914 308.184C183.719 311.214 185.451 313.873 187.396 316.315C191.576 321.762 197.035 325.912 202.848 329.56C217.345 338.645 233.25 344.023 250.138 346.694C250.568 346.828 251.14 346.818 251.927 346.875ZM332.012 197.991C331.366 197.649 330.936 197.373 330.577 197.168C316.312 190.981 301.485 186.362 285.959 184.445C279.448 183.641 272.94 183.262 266.369 184.229C263.44 184.635 260.442 185.396 257.733 186.577C251.886 189.089 251.197 193.348 255.586 197.871C258.392 200.723 261.764 202.716 265.42 204.279C278.967 210.053 293.064 212.137 307.78 210.317C313.21 209.654 318.42 208.215 323.265 205.58C326.614 203.751 329.53 201.363 332.012 197.991Z" fill="#FE7C7C" fill-opacity="0.17" shape-rendering="crispEdges"/>
</g>
<defs>
<filter id="filter0_d_7_15" x="0.494751" y="0.877686" width="499.183" height="554.343" filterUnits="userSpaceOnUse" color-interpolation-filters="sRGB">
<feFlood flood-opacity="0" result="BackgroundImageFix"/>
<feColorMatrix in="SourceAlpha" type="matrix" values="0 0 0 0 0 0 0 0 0 0 0 0 0 0 0 0 0 0 127 0" result="hardAlpha"/>
<feOffset dx="8" dy="4"/>
<feGaussianBlur stdDeviation="50"/>
<feComposite in2="hardAlpha" operator="out"/>
<feColorMatrix type="matrix" values="0 0 0 0 0.9 0 0 0 0 0.8625 0 0 0 0 0.8625 0 0 0 0.21 0"/>
<feBlend mode="normal" in2="BackgroundImageFix" result="effect1_dropShadow_7_15"/>
<feBlend mode="normal" in="SourceGraphic" in2="effect1_dropShadow_7_15" result="shape"/>
</filter>
</defs>
</svg>
