<svg width="353" height="397" viewBox="0 0 353 397" fill="none" xmlns="http://www.w3.org/2000/svg">
<g filter="url(#filter0_d_13_5)">
<path fill-rule="evenodd" clip-rule="evenodd" d="M296.426 207.297C295.424 205.159 293.747 203.876 293.538 200.731C292.747 188.864 290.036 179.903 287.871 170.074C286.474 163.723 284.121 159.057 282.295 153.485C280.476 147.925 277.783 143.807 275.453 139.091C272.555 133.22 269.379 127.826 266.205 122.516C263.719 118.362 261.964 112.427 257.831 111.471C255.302 104.806 250.233 103.081 247.761 96.2575C247.249 94.8387 245.652 95.2511 243.991 96.0724C246.317 99.54 248.636 103.014 250.966 106.47C252.867 109.286 254.526 112.627 256.742 114.762C260.55 118.438 262.927 124.854 266.508 128.992C269.74 132.732 272.093 138.372 274.389 143.947C275.724 147.181 276.992 150.717 278.501 153.48C280.002 156.232 279.765 162.041 282.483 162.528C282.519 170.669 286.9 172.089 286.872 180.327C289.692 182.91 289.154 190.715 290.644 195.236C292.215 200.008 292.032 206.997 293.253 212.103C293.448 212.908 293.278 214.173 292.504 215.709C289.864 219.739 292.062 210.796 289.329 214.962C287.527 218.98 290.664 217.964 288.849 222.482C287.017 221.762 285.282 220.705 283.269 220.435C282.155 220.288 283.188 216.751 281.852 217.27C282.124 212.284 280.624 209.933 279.771 206.606C279.574 205.834 278.993 205.171 279.076 204.72C280.366 197.736 278.527 195.358 276.976 192.54C276.469 191.62 277.95 189.372 277.678 188.3C275.706 190.949 274.078 190.318 274.052 188.786C273.94 181.728 270.646 180.285 269.067 175.868C266.961 169.976 264.573 164.47 261.13 160.959C259.811 159.61 258.896 157.249 258.182 154.95C256.414 149.225 252.561 147.718 250.406 142.914C248.302 138.211 244.576 136.8 242.674 131.612C241.83 129.3 240.117 127.977 238.472 126.964C237.066 126.095 236.011 124.854 236.174 121.375C235.641 121.928 235.115 122.471 234.358 123.252C233.77 121.757 233.43 119.563 231.931 119.635C229.905 119.731 229.272 116.735 227.897 115.398C225.034 112.608 222.237 109.734 219.168 107.361C217.377 105.978 214.896 105.596 213.943 102.933C212.761 99.6419 209.665 101.373 208.506 98.7642C207.028 95.4488 203.759 96.3664 202.101 93.8649C199.436 89.8424 194.811 90.669 191.87 87.608C185.484 80.955 176.574 80.6524 169.158 76.619C167.967 75.9696 166.868 74.7072 165.338 75.3862C163.99 75.985 163.429 74.5257 161.833 75.7137C160.825 76.4633 159.349 76.3041 159.578 73.4492C157.63 75.6909 158.431 69.6112 155.916 73.4118C155.736 73.6824 155.263 73.1214 155.072 72.6922C154.941 72.3965 155.059 71.6634 155.068 70.9886C154.178 72.0417 153.289 73.0906 152.111 74.485C150.345 73.7904 148.537 72.9318 146.611 72.3849C145.64 72.1043 145.073 70.6045 143.246 72.6833C142.59 73.432 141.777 72.9398 141.301 72.449C140.428 71.5456 140.422 69.0323 138.152 71.0421C136.663 72.3605 136.155 69.0516 133.903 71.7429C133.421 72.32 132.94 71.3596 132.378 71.3493C130.738 71.3151 129.941 68.9203 127.558 70.9281C125.469 72.6888 125.055 68.4731 122.41 71.9702C122.303 72.1133 122.14 71.9439 122.04 71.8414C119.397 69.0957 114.674 72.1795 111.742 70.1966C111.01 69.7023 110.41 68.6826 108.916 70.0664C105.142 73.5615 102.882 71.4804 99.8756 72.1391C97.6545 72.622 95.9133 72.0551 92.944 77.3834C91.4465 80.0678 89.5062 81.4784 89.1887 78.9944C88.8676 76.4626 88.0515 76.2637 86.1359 78.2318C85.6042 78.7809 85.1348 77.9517 84.5853 77.7356C84.5543 75.6255 86.0973 73.3887 86.8457 70.793C88.3523 69.3298 89.9489 67.7755 91.6564 66.1174C90.667 60.9762 91.723 57.6548 95.0125 52.6842C100.272 44.7349 104.579 43.2651 108.926 41.5035C111.937 40.2863 114.706 40.0399 117.672 39.0118C120.495 38.0367 122.847 38.6078 125.917 36.9255C127.692 35.9512 129.307 36.5441 130.847 36.6445C134.87 36.908 139.676 34.8005 143.174 36.5723C144.271 37.1303 146.104 34.5144 147.138 35.5573C147.96 36.382 148.835 37.8592 150.886 35.1526C151.115 34.8507 151.459 35.0829 151.66 35.2633C154.515 37.8143 159.413 34.6601 162.321 37.0887C163.796 38.3222 166.595 35.4671 168.112 36.94C169.544 38.3291 171.295 39.3504 173.357 39.0073C180.959 37.7339 186.181 42.6651 192.568 44.5411C197.628 46.0257 202.412 48.2401 207.272 50.2444C210.923 51.7479 213.237 56.4158 217.478 56.5335C218.242 60.2337 221.351 58.9036 222.629 61.2012C223.948 63.5691 226.393 63.2166 227.562 65.4247C228.815 67.7881 231.534 67.1008 232.137 70.2066C232.784 73.562 236.546 70.1505 236.092 75.3473C238.129 75.5714 239.175 78.0178 240.782 79.1132C242.031 79.9625 242.749 81.6519 243.626 83.05C245.211 85.5778 247.671 86.1116 249.397 88.2268C251.016 90.2074 252.631 92.2204 254.193 94.2841C257.316 98.4066 260.23 102.957 263.38 107.056C265.352 109.622 267.299 112.461 268.681 116.143C270.04 119.774 272.748 120.704 273.869 124.684C275.181 129.345 277.96 131.323 279.332 135.911C280.685 140.433 282.699 143.862 284.376 147.841C287.948 156.307 290.616 166.191 293.334 176.018C294.944 181.846 295.363 189.396 296.585 195.774C297.179 198.868 297.103 202.538 296.426 207.297Z" fill="#EEC8F8" fill-opacity="0.61"/>
<path fill-rule="evenodd" clip-rule="evenodd" d="M106.422 251.926C107.437 252.199 108.094 252.419 108.104 254.306C108.116 256.813 110.324 252.525 110.986 253.561C111.319 254.084 112.467 253.613 112.377 254.277C111.866 258.082 114.405 255.015 114.685 256.191C115.176 258.23 116.607 257.68 117.525 258.471C118.748 259.517 120.719 258.754 121.019 262.028C121.264 264.694 124.424 260.545 124.954 263.483C125.217 264.951 126.692 264.925 127.87 264.735C129.391 264.495 128.646 268.284 130.093 268.154C131.253 268.05 132.014 269.209 133.164 269.143C134.583 269.056 133.881 272.917 135.426 272.434C136.972 271.955 136.324 275.677 137.676 275.758C138.985 275.843 140.55 275.721 140.386 278.981C142.968 279.579 145.363 280.53 145.765 285.617C145.81 286.191 146.426 286.117 146.858 286.093C148.643 286.003 149.567 287.803 149.85 290.438C150.034 292.119 150.822 292.004 151.43 292.521C152.037 293.034 152.601 293.508 153.046 294.492C154.865 298.498 156.627 302.628 158.527 306.455C161.154 311.756 163.399 317.64 165.363 324.028C165.646 324.953 165.457 326.521 166.961 325.048C166.738 322.816 167.235 319.97 166.321 318.49C165.472 317.12 165.787 313.241 164.679 312.717C163.357 312.096 165.362 306.759 162.97 307.693C161.829 308.137 161.757 304.356 161.143 302.589C160.283 300.106 159.823 296.694 158.366 295.54C156.356 293.945 155.324 290.623 153.905 288.06C152.473 285.471 150.654 283.66 149.188 281.149C147.727 278.65 146.647 275.158 144.582 274.059C142.361 272.878 140.93 270.087 138.842 268.642C137.38 267.633 135.476 267.014 134.664 264.837C133.976 262.995 133.04 262.075 131.757 261.954C130.299 261.819 130.81 258.237 129.194 258.292C127.192 258.36 125.544 257.282 123.893 256.342C122.392 255.49 119.678 256.824 119.542 253.586C119.364 249.353 114.688 256.467 115.429 250.784C113.166 252.733 111.734 252.587 111.503 249.299C111.484 249.068 110.927 249.308 110.637 249.666C108.823 251.906 108.188 250.303 107.351 249.78C101.491 246.115 93.9152 247.066 87.6049 244.626C87.5166 244.591 87.2546 244.998 86.728 245.579C88.5846 248.912 92.9408 246.333 93.9199 250.88C95.4474 249.943 96.8701 249.066 98.0676 248.328C98.6775 249.558 97.1058 251.868 97.4632 252.881C98.1369 252.299 99.2785 250.41 99.373 251.471C99.6855 254.981 102.183 251.253 103.567 251.241C103.531 252.58 103.499 253.936 103.453 255.759C104.559 254.328 105.628 252.949 106.422 251.926ZM53.7349 270.083L55.6535 265.205C55.8319 263.856 55.3162 264.567 54.8085 264.974C53.3292 266.153 52.2676 264.438 50.2979 268.761C49.6895 270.097 48.6739 270.612 47.9496 270.289C46.647 269.713 45.1423 271.995 43.7833 275.239L38.8984 273.318C38.9893 271.55 38.6651 270.332 39.7892 267.867C40.4477 266.424 41.495 264.523 41.2849 263.177C40.7633 259.846 42.7084 254.629 44.3563 252.332C46.674 249.102 48.9752 245.003 51.8236 243.229C56.6851 240.203 61.0464 238.835 65.261 238.079C69.1488 237.379 72.7952 237.529 76.5176 237.379C78.921 237.284 80.8841 238.499 83.3558 237.849C86.0126 237.145 87.7645 238.82 90.2119 238.321C94.297 237.493 97.7288 237.928 99.9783 241.783C100.335 242.4 101.868 241.242 102.842 241.069C106.614 240.408 113.171 241.904 115.673 245.104C116.421 246.06 118.262 243.46 118.545 245.193C118.838 246.985 118.809 249.223 120.961 246.135C121.886 250.99 127.451 244.905 128.083 250.878C128.299 252.939 130.652 251.758 131.115 254.375C131.327 255.579 133.834 251.995 134.491 253.858C134.499 255.155 134.507 256.691 134.517 258.262C135.479 256.977 136.315 256.269 136.872 256.918C138.449 258.768 140.428 259.862 141.86 261.883C143.884 264.727 146.031 267.362 148.032 270.26C152.453 276.653 156.969 282.799 160.641 290.659C163.464 296.69 166.008 303.083 168.098 310.363C170.035 317.116 171.349 324.369 169.588 335.586C168.859 336.605 168.651 335.933 168.259 335.897C167.864 335.864 167.626 335.265 166.614 336.771C166.77 338.745 166.94 340.847 167.148 343.456C164.581 346.179 163.206 349.687 161.995 353.078C158.069 355.565 158.186 350.274 157.643 346.605C157.261 344.045 156.805 341.852 155.897 340.063C152.609 333.575 149.633 326.52 146.539 319.678C147.562 317.186 147.784 319.924 148.736 317.842C148.733 317.605 148.842 316.948 148.712 316.767C147.674 315.352 145.147 318.807 144.094 317.259C142.761 315.294 141.286 313.606 139.832 311.88C136.454 307.884 134.171 301.691 129.714 299.828C128.123 299.169 127.126 296.889 125.75 295.552C124.844 294.673 122.787 296.156 123.034 292.837C118.999 292.909 117.626 286.669 113.548 286.94C111.659 287.065 111.487 283.063 108.938 284.996C108.597 281.749 106.682 281.868 105.133 281.212C103.394 280.478 101.624 279.819 99.8677 279.128C98.2357 278.487 96.6713 277.661 94.9487 277.265C93.6813 276.982 92.8463 275.659 90.9669 276.769C89.7419 277.488 90.1412 272.8 87.7194 276.035C86.8634 270.664 82.0302 275.887 79.8527 273.763C75.7456 269.759 68.9401 272.765 64.4021 269.775C62.1202 272.168 62.4713 267.133 60.85 268.669C58.4771 270.912 57.6605 269.137 56.3166 268.756C55.6072 268.557 54.7474 269.904 53.7349 270.083Z" fill="#EEC8F8" fill-opacity="0.61"/>
<path fill-rule="evenodd" clip-rule="evenodd" d="M179.14 170.138C173.996 168.115 168.784 166.259 163.749 163.967C162.253 163.286 159.756 164.621 159.856 160.333C159.867 159.815 159.242 159.915 158.589 160.656C157.119 162.328 156.392 161.878 156.168 160.058C156.092 159.434 155.94 158.511 155.62 158.688C152.941 160.145 150.863 160.175 150.241 156.471C146.726 159.934 145.462 156.66 143.441 155.887C139.362 154.324 133.977 156.398 130.479 153.295C126.248 156.741 125.106 150.562 120.965 153.732C120.86 148.863 117.631 151.81 115.653 153.138C112.937 154.96 112.443 150.713 109.29 153.808C107.82 155.252 106.579 153.091 104.958 153.14C105.645 154.657 105.541 156.997 105.472 159.287C107.564 157.872 109.739 155.981 111.216 157.135C112.038 157.774 112.896 158.66 114.599 156.389C114.089 160.313 116.409 156.915 117.214 156.486C118.269 155.924 118.37 156.246 118.426 157.544C118.451 158.127 119.022 158.411 119.454 158.079C124.182 154.449 125.429 161.508 130.173 157.77C131.126 159.599 132.381 160.489 134.864 157.56C134.24 162.285 138.109 156.793 137.866 158.741C137.343 162.929 141.637 156.154 140.271 161.38C141.468 161.973 142.415 163.643 143.908 162.962C149.377 160.467 152.071 165.275 156.343 165.881C157.322 166.022 156.515 170.811 159.123 166.903C158.34 171.626 160.944 167.687 161.895 167.985C164.433 168.769 166.223 171.246 168.021 173.63C168.424 174.164 168.699 175.085 169.246 175.464C170.199 176.126 171.994 174.207 172.542 176.453C172.926 178.045 174.557 177.852 175.802 177.959C180.09 178.327 181.956 184.394 186.361 184.458C187.049 184.468 186.82 185.797 186.894 186.724C186.931 187.181 190.484 188.515 191.032 188.625C191.568 188.731 192.394 188.52 192.489 189.274C193.151 194.523 196.796 193.921 198.125 197.856C198.404 198.682 199.173 198.753 199.811 198.916C201.53 199.352 202.709 200.721 202.531 204.556C203.059 204.014 203.582 203.474 203.831 203.218C207.038 205.449 208.378 211.174 211.733 212.843C212.304 213.127 213.095 212.899 213.052 214.567C213.029 215.493 213.493 215.891 213.75 216.56C213.016 218.252 212.176 218.616 211.389 219.592C210.089 220.071 211.4 214.772 208.717 217.926C206.756 220.23 208.247 214.257 206.386 215.075C205.06 215.662 203.526 215.088 203.342 213.351C203.062 210.71 201.39 212.129 200.501 211.235C200.922 213.853 202.889 214.134 201.72 219.8C200.42 219.406 200.764 216.003 198.688 217.912C197.951 218.873 198.956 219.264 198.388 220.452C196.334 222.416 196.612 219.252 195.92 218.154C195.254 217.096 193.509 218.356 193.329 216.259C193.112 213.73 190.384 218.332 190.313 215.212C190.496 214.462 190.791 213.251 191.165 211.722C190.66 212.189 190.211 212.606 189.414 213.346C189.606 211.749 189.809 210.03 190.022 208.251C188.22 210.42 187.183 211.331 187.218 208.535C187.222 208.052 185.757 208.79 185.492 207.641C182.935 211.682 185.829 203.059 183.591 206.358C182.868 207.152 182.145 207.951 181.403 208.771C180.819 211.604 183.175 209.202 182.753 211.762C181.246 213.512 180.626 212.265 180.02 211.601C179.656 211.197 178.687 210.134 180.959 206.713C182.073 205.036 181.41 202.501 180.131 202.819C179.201 203.052 178.22 203.972 178.086 201.998C177.973 200.349 177.447 199.194 175.766 200.926C174.19 202.551 175.457 197.552 173.545 199.138C172.963 199.621 171.974 197.913 171.6 196.755C171.095 195.187 169.267 196.537 169.372 193.958C167.57 197.011 167.831 193.095 166.202 194.628C164.631 196.108 166.389 192.06 166.39 190.417C163.391 195.127 164.731 188.931 163.409 189.228C162.051 190.463 161.678 192.57 160.964 194.649C163.284 197.276 167.525 195.573 169.203 199.482C170.864 203.337 175.966 199.745 175.882 207C174.689 208.443 173.839 207.73 173.616 206.85C172.66 203.087 169.503 204.419 167.913 202.323C164.191 197.401 158.687 196.896 153.821 194.826C152.598 194.307 153.404 190.672 151.912 190.839C154.154 190.238 156.418 189.44 156.697 193.674C157.839 192.977 159.064 192.229 160.274 191.491C160.983 188.152 159.366 188.084 159.577 185.694C156.649 187.951 153.887 189.801 152.819 186.204C152.405 184.803 149.518 188.862 150.573 184.234C146.013 187.243 144.007 183.126 140.761 182.481C137.556 181.84 134.702 180.233 131.723 179.061C130.359 180.197 130.149 182.924 128.629 184.766C123.745 181.619 116.269 184.774 112.285 178.653L117.384 180.659C118.432 178.143 117.952 177.377 118.13 176.078C117.618 176.597 117.108 177.117 116.748 177.481C116.175 173.599 112.615 178.345 111.398 175.149C111.237 178.119 111.591 179.218 109.877 181.843C109.527 180.846 109.905 178.716 109.728 177.391C107.724 180.533 105.663 183.147 104.29 181.975C101.5 179.58 97.3032 181.203 93.8641 180.693C91.8114 180.391 89.6346 180.243 87.4506 180.226C85.4025 180.213 83.0265 181.191 81.3899 179.945C78.0412 183.7 77.4309 177.789 74.0503 181.654C72.4967 179.354 68.9528 182.969 67.1422 181.334C66.3535 180.624 64.1858 184.055 63.7348 182.121C63.3655 180.527 60.5432 185.538 61.2909 181.274C60.0293 182.143 58.381 185.551 57.4761 184.167C57.3543 182.746 58.1348 182.699 58.8213 181.448C59.014 177.396 60.4083 171.958 59.8659 168.302C60.7768 166.761 61.0989 167.713 61.7352 167.23C62.7874 166.026 63.0773 164.114 63.9695 162.405C64.4897 162.205 65.0852 161.976 65.6919 161.743C66.5035 160.583 65.915 160.272 66.2208 159.158C67.2825 157.439 68.3975 156.104 69.2322 156.803C70.3565 157.743 72.0911 156.567 73.7083 155.033C76.611 152.283 79.0539 151.276 80.8255 152.386C81.7106 152.94 84.1122 149.348 83.683 153.337C84.3564 152.131 84.9645 151.039 85.8567 149.44C87.5199 151.101 90.345 149.301 92.7596 148.881C96.0239 148.312 99.0295 148.542 102.561 147.18C103.995 146.632 105.239 147.087 106.811 146.484C108.286 145.918 109.145 147.254 111.042 145.961C112.561 144.924 113.442 147.592 114.966 146.595C116.796 145.402 117.827 144.982 117.819 147.945C117.818 148.205 119.278 146.526 119.544 146.824C120.773 148.205 123.263 145.326 124.612 146.315C125.901 147.26 127.373 147.742 129.562 146.105C131.381 144.744 130.637 150.218 133.088 147.429C136.876 147.781 140.916 147.407 144.136 149.369C145.099 149.954 145.867 151.474 147.941 148.877C148.584 148.072 148.537 149.81 148.804 150.392C149.669 152.27 151.089 153.216 153.093 151.948C154.239 151.223 155.17 150.996 155.439 151.978C155.705 152.946 155.559 153.866 156.786 152.68C157.706 151.791 158.437 152.361 158.575 154.041C158.742 156.04 159.929 156.819 161.163 155.404C163.221 153.046 161.688 158.728 163.613 156.347C165.494 154.016 166.41 155.602 167.173 156.534C167.755 157.243 168.7 157.236 169.035 158.324C169.773 160.699 171.72 160.113 173.14 160.777C174.57 161.444 174.513 165.02 176.482 164.661C177.282 164.516 177.967 164.171 178.855 163.151C178.588 165.94 180.526 166.02 179.14 170.138Z" fill="#EEC8F8" fill-opacity="0.61"/>
<path fill-rule="evenodd" clip-rule="evenodd" d="M179.142 170.123C180.123 171.844 182.043 168.117 183.318 167.338C184.465 166.929 183.718 169.517 184.278 169.805C186.244 170.835 187.935 172.482 189.725 173.868C192.686 176.166 195.554 178.495 198.081 181.78C199.747 183.944 202.11 184.697 202.875 188.667C205.509 186.518 206.095 189.777 207.365 190.841C209.092 192.283 211.602 192.866 211.03 198.632C212.686 196.675 213.722 196.396 213.989 198.705C214.333 201.675 215.385 203.323 217.187 203.53C217.832 203.607 218.416 203.778 218.472 205.296C218.612 208.978 220.347 209.631 222.264 209.989C221.951 211.243 221.648 212.455 221.343 213.671C221.345 216.768 224.502 210.772 224.275 213.607C224.053 216.371 226.026 214.822 225.794 217.279C225.042 218.109 224.319 218.907 223.574 219.726C223.927 216.494 222.889 216.819 221.19 218.864C220.964 218.704 220.536 218.763 220.557 218.366C220.807 213.401 218.479 212.746 217.127 210.812C215.455 208.419 213.358 206.718 211.632 204.328C210.021 202.094 208.661 199.094 206.805 197.673C204.671 196.046 202.932 193.53 200.723 192.037C198.634 190.617 196.473 189.127 195.078 185.958C194.095 183.726 192.056 183.211 190.503 182.006C188.382 180.354 187.358 176.16 184.249 176.782C182.754 177.079 183.557 173.17 182.01 173.399C180.717 173.59 179.795 172.52 178.77 171.868C178.675 171.805 179.005 170.739 179.142 170.123Z" fill="#EEC8F8" fill-opacity="0.61"/>
</g>
<defs>
<filter id="filter0_d_13_5" x="16.8984" y="0.00683594" width="336.088" height="396.713" filterUnits="userSpaceOnUse" color-interpolation-filters="sRGB">
<feFlood flood-opacity="0" result="BackgroundImageFix"/>
<feColorMatrix in="SourceAlpha" type="matrix" values="0 0 0 0 0 0 0 0 0 0 0 0 0 0 0 0 0 0 127 0" result="hardAlpha"/>
<feOffset dx="17" dy="4"/>
<feGaussianBlur stdDeviation="19.5"/>
<feComposite in2="hardAlpha" operator="out"/>
<feColorMatrix type="matrix" values="0 0 0 0 0.9135 0 0 0 0 0.700833 0 0 0 0 0.966667 0 0 0 0.39 0"/>
<feBlend mode="normal" in2="BackgroundImageFix" result="effect1_dropShadow_13_5"/>
<feBlend mode="normal" in="SourceGraphic" in2="effect1_dropShadow_13_5" result="shape"/>
</filter>
</defs>
</svg>
