<svg width="1060" height="745" viewBox="0 0 1060 745" fill="none" xmlns="http://www.w3.org/2000/svg">
<path d="M759.494 352.939C777.96 367.502 781.892 385.035 772.461 406.287C776.885 405.574 779.948 405.08 782.671 404.641C825.894 397.674 869.368 392.232 913.293 389.536C941.992 387.728 970.552 387.196 998.744 390.795C1009.07 391.95 1019.2 394.075 1029.09 396.865C1035.67 398.624 1042.15 401.963 1047.67 405.772C1059.93 414.445 1062.53 428.121 1055.59 441.142C1051.87 448.318 1046.26 454.547 1039.72 459.361C1028.18 467.798 1016.59 475.931 1004.17 483.258C970.743 503.054 935.403 519.714 899.962 535.763C856.414 555.625 812.767 574.876 769.169 594.433C766.547 595.482 763.634 596.891 759.751 598.77C763.065 599.802 765.257 600.388 767.45 600.974C776.27 603.624 782.959 608.184 784.705 616.672C786.551 625.771 782.5 633.002 774.644 638.34C768.339 642.488 760.963 646.496 753.776 649.534C724.741 662.045 694.473 671.309 664.205 680.574C606.291 698.053 547.636 713.147 488.088 724.939C437.339 734.999 386.628 743.174 334.764 744.331C315.254 744.657 295.592 744.068 276.791 740.208C266.659 738.083 256.768 735.292 247.886 730.146C227.489 718.714 220.194 699.844 228.263 678.811C232.443 668.114 239.256 658.559 247.241 649.755C262.92 632.506 281.874 618.175 301.368 605.009C304.521 602.935 307.963 600.501 310.915 597.206C308.873 597.535 306.831 597.865 305.129 598.139C270.666 605.261 235.662 611.217 200.245 612.541C184.288 613.234 168.471 612.652 152.593 609.574C141.39 607.308 130.377 604.072 121.005 598.066C103.822 587.054 96.4473 571.956 98.8816 552.771C100.238 541.903 104.178 531.871 111.041 522.621C119.015 511.626 126.989 500.631 136.575 490.942C152.455 474.914 169.606 460.247 186.267 444.72C188.689 442.45 190.82 440.54 194.743 436.776C190.609 437.129 188.516 437.153 186.134 437.537C165.714 440.829 145.344 444.426 124.773 446.802C113.492 448.308 101.619 448.342 90.0369 448.017C83.0294 447.894 75.8212 446.55 69.1933 444.486C46.0458 437.569 35.447 419.858 40.9333 397.988C43.8913 386.236 50.5539 375.765 58.3378 365.741C60.8989 362.196 63.8506 358.901 67.3325 354.581C64.5596 354.715 62.8077 354.684 61.106 354.958C53.2281 355.915 45.4004 357.177 37.4221 357.523C31.8763 357.791 25.8397 357.198 20.3833 355.885C4.69498 351.837 -3.00873 338.984 1.64003 324.766C3.50958 319.14 6.74047 313.295 10.5626 308.92C17.967 300.836 25.7116 292.697 34.7283 285.919C53.1018 272.307 71.5255 259.001 91.171 246.751C121.105 229.084 151.19 212.332 180.834 195.025C185.928 192.011 191.362 188.943 196.015 185.373C237.796 152.642 284.473 126.324 333.165 103.754C412.974 66.4575 496.229 37.3756 582.932 16.508C617.875 8.05607 653.17 1.73998 688.927 0.360719C702.791 -0.308218 716.466 -0.00693208 729.912 3.1502C736.83 4.8539 744.138 6.80785 750.286 10.2018C765.556 18.0763 771.519 33.0889 765.319 48.4962C762.869 54.8422 759.348 61.0476 754.605 66.1972C744.879 77.1614 734.373 87.6251 723.035 97.2831C700.7 116.544 676.211 133.334 651.672 149.818C649.15 151.477 646.969 153.082 644.698 156.267C648.151 156.024 651.264 155.835 654.768 155.897C661.435 156.075 668.052 155.948 674.479 156.791C699.217 160.633 707.004 180.363 691.085 198.277C686.052 203.786 679.948 209.155 673.693 213.609C659.923 223.346 645.371 232.583 631.11 241.459C618.4 249.146 605.64 256.527 592.74 265.184C594.832 265.16 597.265 265.081 599.307 264.752C636.654 260.298 673.812 256.813 711.181 256.74C730.742 256.719 750.353 257.003 769.495 260.808C777.825 262.597 786.545 264.637 794.104 268.117C813.759 277.163 818.522 295.502 806.346 312.812C802.335 318.157 797.592 323.306 792.408 327.901C783.832 335.234 774.375 341.457 765.358 348.235C763.857 349.73 762.016 351.279 759.494 352.939Z" fill="url(#paint0_linear_12_13)" fill-opacity="0.17"/>
<defs>
<linearGradient id="paint0_linear_12_13" x1="237.133" y1="314.041" x2="798.54" y2="534.857" gradientUnits="userSpaceOnUse">
<stop offset="0.072122" stop-color="#92EDE2" stop-opacity="0.99"/>
<stop offset="1" stop-color="#99EAE0" stop-opacity="0.59"/>
</linearGradient>
</defs>
</svg>
