<svg width="709" height="808" viewBox="0 0 709 808" fill="none" xmlns="http://www.w3.org/2000/svg">
<g filter="url(#filter0_d_34_37)">
<path fill-rule="evenodd" clip-rule="evenodd" d="M235.276 506.782C232.361 507.19 233.639 509.364 232.795 510.39C231.802 511.606 229.874 512.045 230.064 514.265C230.495 519.413 227.437 523.431 227.016 528.477C226.603 533.428 224.242 538.064 223.736 543.15C223.474 545.776 223.344 548.339 221.485 550.25C223.175 553.874 221.167 557.129 221.7 560.706C222.261 564.471 221.999 568.262 222.188 572.047C222.203 572.421 222.837 572.835 223.387 573.457C224.551 573.295 225.535 572.933 225.346 571.315C224.97 568.088 226.666 565.343 226.228 562.025C225.778 558.613 226.406 555.305 226.763 551.944C227.955 540.743 229.87 529.821 232.68 519.081C233.707 515.154 235.437 511.326 235.276 506.782M331.042 543.05C331.511 538.569 328.098 535.028 327.004 530.835C326.469 532.73 326.121 534.672 326.654 536.446C328.539 542.713 327.824 548.844 328.186 555.026C328.312 557.18 327.606 559.44 327.683 561.326C327.77 563.545 329.344 566.582 328.44 568.409C326.828 571.657 328.527 575.228 327.549 578.418C326.602 581.506 326.421 584.853 325.854 588.051C324.768 594.144 325.273 600.799 321.633 606.101C320.82 607.285 321.609 609.617 320.864 610.899C319.933 612.501 320.397 613.615 320.788 616.302C323.059 611.099 325.315 607.418 326.318 603.3C327.893 596.83 329.224 590.246 330.434 583.633C332.529 572.191 332.917 560.643 332.318 548.84C332.217 546.86 332.287 544.984 333.291 543.33C332.762 543.262 332.269 543.202 331.042 543.05M251.114 275.678C245.826 278.409 244.987 283.648 241.526 286.644C242.274 289.83 238.214 290.051 238.139 293.307C238.094 295.377 235.081 297.381 233.279 299.13C231.392 300.966 232.222 303.74 230.424 305.324C226.972 308.363 225.549 312.924 223.296 316.772C221.092 320.545 218.645 324.28 217.028 328.577C214.663 334.87 210.021 339.928 207.651 346.348C206.174 350.339 204.165 354.084 202.402 357.943C200.827 361.397 199.594 365.084 197.601 368.248C195.516 371.563 193.05 374.514 193.639 379.038C193.706 379.549 192.833 380.13 192.312 380.581C191.219 381.526 190.175 382.445 190.628 384.245C191.045 385.913 190.52 387.155 189.138 387.99C187.797 388.803 187.718 390.142 187.523 391.699C187.15 394.651 186.834 397.994 185.231 400.2C181.865 404.845 182.721 411.504 178.664 415.668C180.277 419.521 176.527 421.574 176.519 425.164C176.508 428.392 173.368 431.153 172.926 434.448C172.026 441.176 166.93 446.322 167.93 453.687C167.979 454.051 167.461 454.437 167.188 454.798C164.009 459.01 165.662 465.412 161.981 469.399C161.232 477.812 157.355 485.15 156.247 493.443C153.942 494.942 156.488 498.263 154.327 499.992C151.904 501.928 153.925 505.178 153.463 507.74C153.377 508.217 153.589 508.783 153.477 509.247C151.537 517.428 150.38 525.753 149.707 534.326C148.906 544.547 148.284 554.734 148.729 565.112C148.783 566.307 149.561 566.898 150.632 567.017C151.742 566.627 152.068 565.853 151.949 564.739C151.651 561.989 152.195 559.338 152.046 556.559C151.883 553.586 152.319 550.353 152.525 547.234C152.984 540.283 152.946 533.139 154.452 526.516C155.727 520.898 156.235 515.071 157.739 509.521C159.057 504.647 160.821 499.853 160.584 494.495C165.262 490.896 161.805 483.774 165.525 479.763C164.457 475.506 167.078 472.624 168.221 469.154C169.286 465.919 169.126 462.131 170.375 459.015C173.964 450.062 174.997 439.963 180.1 431.71C179.148 425.367 183.706 420.998 184.257 415.034C184.71 410.11 187.843 405.933 189.312 401.164C191.565 393.84 194.008 386.548 197.113 379.643C198.662 376.199 199.779 372.527 201.767 369.202C204.226 365.076 206.128 360.388 207.883 355.833C210.726 348.454 214.17 341.5 217.845 334.609C221.733 327.32 225.629 320.033 229.458 312.71C233.008 305.928 237.299 299.638 240.915 292.956C244.023 287.213 248.618 282.498 251.114 275.678M252.164 319.123L254.291 319.305C254.658 320.543 253.819 321.388 253.052 321.543C248.955 322.364 246.619 324.734 246.024 328.9C246.76 329.215 247.502 329.536 248.25 329.856C248.083 331.059 247.464 331.621 246.274 331.439C245.174 331.271 244.336 331.504 244.004 332.752C244.343 333.499 244.744 334.385 245.151 335.287C244.137 335.918 242.076 334.838 241.967 336.985C242.332 338.225 243.68 337.038 244.145 338.054C243.981 338.442 243.846 339.211 243.621 339.211C238.018 339.236 238.161 344.694 235.987 347.752C233.77 350.876 232.726 355.081 229.172 356.951C227.371 357.903 228.913 361.329 225.417 360.929C224.023 360.769 222.632 363.294 221.267 364.569L221.385 368.413C220.423 369.304 216.737 367.978 218.907 371.384C220.546 373.96 217.54 373.914 217.186 375.454C216.163 379.879 212.875 383.308 212.584 388.112C212.542 388.826 212.705 389.922 212.308 390.176C208.979 392.277 209.406 396.248 208.523 399.807C209.061 400.496 209.845 401.502 211.003 402.979C208.155 404.775 207.341 407.804 206.374 410.952C205.108 415.065 203.832 419.561 199.889 421.871C198.221 422.848 199.511 426.284 196.105 425.715C194.839 425.504 194.75 427.866 195.3 428.812C196.728 431.273 196.252 433.667 196.565 436.144C195.794 436.112 195.073 436.083 194.348 436.053C195.219 440.074 192.046 442.781 191.963 446.517C191.963 446.529 191.486 446.477 191.233 446.456C190.976 446.433 190.722 446.411 190.431 446.384C190.425 447.809 190.421 449.236 190.415 450.696C187.813 449.631 188.88 452.471 188.062 452.786C184.705 454.093 187.811 458.192 185.472 459.832C185.352 459.916 185.735 460.908 185.759 460.906C187.557 460.713 187.519 461.747 187.697 463.11C187.969 465.216 185.923 463.607 185.504 464.556C184.783 466.188 182.676 475.244 183.256 477.189C183.587 478.294 183.93 479.016 183.051 479.648C180.442 481.533 183.252 486.293 179.39 487.634C178.409 487.976 177.537 487.93 176.581 487.975C176.136 489.955 179.006 490.471 178.908 492.527C178.801 494.746 178.011 496.64 177.05 498.347C176.316 499.644 175.487 500.111 176.831 502.004C178.274 504.035 176.397 506.198 175.869 508.13C175.449 509.667 174.969 510.884 175.603 514.047C180.413 503.507 180.186 492.615 184.586 483.283C186.21 483.379 186.071 484.924 186.22 486.482C186.374 488.036 185.444 489.155 185.078 490.432C183.875 494.637 181.735 498.492 182.385 503.282C179.088 509.678 179.618 517.309 178.057 524.273C176.406 531.634 175.24 539.443 176.396 547.273C177.135 552.266 177.506 557.171 177.642 562.085C177.737 565.485 177.862 568.837 177.195 572.25C176.603 575.277 175.915 579.045 178.309 582.431C179.047 593.797 183.829 604.718 185.933 615.952C186.747 620.293 188.694 624.848 191.202 628.678C193.07 631.532 193.36 634.601 195.035 637.454C197.304 641.333 198.899 645.344 202.03 648.992C205.01 652.465 207.236 656.634 210.72 659.819C212.557 661.498 213.422 664.356 215.078 665.456C220.825 669.279 226.925 672.569 233.046 675.702C239.66 679.086 245.867 677.577 251.892 675.504C252.32 675.355 252.533 674.672 252.958 674.581C255.885 673.968 258.842 673.448 261.786 672.9C261.62 669.146 266.643 670.835 267.202 667.843C270.603 667.526 272.084 664.278 274.758 663.198C282.397 660.11 286.867 653.543 292.501 648.334C295.889 645.201 298.633 640.962 300.321 636.579C301.874 632.536 304.713 629.402 306.069 625.2C307.36 621.2 309.852 617.44 310.907 613.437C312.65 606.824 314.924 600.413 316.45 593.728C317.475 589.24 318.803 584.785 319.159 580.159C319.502 575.626 319.958 571.181 320.964 566.825C321.231 565.666 321.044 564.324 320.91 563.064C320.159 555.983 321.34 549.138 320.455 541.965C319.11 531.138 316.393 516.71 307.817 503.921C305.041 499.776 302.705 495.289 299.532 491.386C295.309 486.188 290.121 484.94 284.161 486.395C282.681 486.759 281.037 487.212 279.43 487.453C278.53 487.587 278.123 489.434 276.418 489.553C275.33 489.627 275.719 491.139 275.72 492.198C274.286 492.127 272.845 492.054 271.23 491.975C271.699 492.92 272.134 493.795 272.662 494.866L265.956 501.133C265.183 500.719 264.32 500.252 263.205 499.649C262.302 503.218 266.462 507.261 263.325 510.562C260.849 513.17 262.439 518.363 258.028 519.433C259.592 523.336 259.592 523.336 255.48 524.212C254.213 526.795 257.17 530.192 255.399 532.782C253.782 535.142 254.56 538.239 253.609 540.862C252.609 543.624 252.326 546.751 252.007 549.778C251.53 554.311 251.293 558.894 250.955 563.459C250.868 564.636 251.051 565.742 250.318 566.9C248.984 569 250.275 574.161 252.119 576.601C254.693 580.005 257.095 583.518 258.794 587.763C260.436 588.941 262.488 588.119 264.351 588.642C271.18 583.566 276.335 577.329 278.248 568.632C275.901 567.858 274.895 568.249 274.269 570.592C273.846 572.175 270.148 570.368 269.885 573.439C264.847 570.786 259.832 569.049 256.433 564.323C255.964 556.91 255.515 549.418 258.846 542.577C260.926 538.313 264.691 532.571 267.772 530.516C268.819 529.821 270.03 530.399 271.175 529.814C273.08 528.838 276.036 532.718 277.654 530.017C279.266 527.33 281.968 532.029 283.211 529.396C285.737 530.034 287.937 528.629 290.321 528.928C293.46 529.322 296.599 530.265 299.737 530.975C300.558 534.436 306.393 533.066 306.157 537.548C310.504 536.986 308.713 542.173 311.249 542.96C314.328 543.916 307.481 546.227 312.477 547.077C313.645 547.278 312.735 550.854 313.955 553.017C314.705 554.341 314.151 556.646 313.612 558.601C312.56 562.41 313.578 566.782 312.764 570.866C312.381 572.765 310.116 573.466 310.668 574.992C311.282 576.695 311.722 578.264 311.772 579.988C311.809 581.284 311.272 582.149 310.711 583.224C308.031 588.348 305.278 593.342 300.633 596.932C296.79 599.896 294.102 604.163 289.006 605.756C286.812 606.444 284.645 606.974 282.386 607.452C275.68 608.868 269.522 611.64 262.656 612.857C257.942 613.697 253.828 612.832 249.486 611.154C246.081 609.837 242.67 608.537 239.313 607.004C237.618 606.231 236.164 605.578 234.893 604.211C232.516 601.657 230.291 598.894 227.632 596.68C222.449 592.364 219.804 586.483 217.257 580.903C215.247 576.488 215.072 571.343 214.487 566.522C213.31 556.843 215.497 547.721 217.018 538.622C218.954 527.07 221.799 515.719 225.561 504.772C227.091 500.319 229.321 496.169 231.367 491.957C231.543 491.59 232.728 491.8 233.862 491.706C233.544 490.665 233.177 489.461 232.817 488.284C238.225 483.23 242.988 478.249 248.349 473.975C251.437 471.518 255.25 469.337 259.198 468.691C261.889 468.25 262.604 465.722 265.291 465.62C271.472 465.386 277.563 464.585 283.714 464.129C287.334 463.863 290.942 463.636 294.674 463.904C301.37 464.385 307.852 466.716 314.446 467.984C316.639 468.404 319.54 469.469 320.617 471.992C321.736 474.617 326.004 473.858 325.902 477.394C328.657 476.788 329.755 480.754 332.45 480.313C331.339 483.45 331.339 483.45 334.333 484.5C335.167 486.826 335.969 489.064 336.661 491.001C338.462 491.82 338.939 489.612 340.678 490.728C342.251 496.539 347.114 501.171 349.384 506.989C348.662 507.87 347.942 508.748 347.291 509.543C347.572 512.106 349.649 511.155 351.288 512.143C353.014 519.363 355.679 526.696 356.887 534.445C358.269 543.284 357.9 551.905 358.526 560.634C358.829 564.839 357.401 568.695 357.678 572.976C357.921 576.695 360.365 580.584 358.373 584.16C360.866 585.986 358.139 587.132 358.109 588.62C358.067 590.628 356.56 592.189 358.323 594.666C359.792 596.732 357.27 598.629 357.594 600.865C356.227 601.496 355.651 599.204 354.33 599.651C352.168 601.267 354.135 603.936 353.178 605.89C354.163 606.032 354.885 606.138 355.823 606.276C354.749 610.283 354.921 614.784 351.544 617.693C351.194 617.996 350.596 618.382 350.643 618.717C351.476 624.734 347.676 628.775 345.495 633.376C343.684 637.196 343.161 641.901 339.534 644.643C339.528 648.615 334.468 649.363 334.564 653.4C331.328 654.888 331.589 659.087 328.836 661.082C326.138 663.038 323.895 665.578 321.453 667.861C319.881 669.33 318.306 670.79 316.742 672.264C313.024 675.763 307.836 677.324 304.386 681.317C303.123 682.78 300.152 683.281 297.691 681.267C297.356 682.603 298.264 682.98 298.772 683.681C290.662 689.591 280.672 691.796 271.179 694.943C265.15 696.943 258.787 698.205 252.433 699.11C242.195 700.569 231.757 700.5 221.23 696.188C216.697 694.332 212.213 692.443 207.752 690.427C203.173 688.351 199.299 684.965 194.813 683.356C191.746 682.257 190.878 679.013 188.128 678.317C185.254 677.595 184.1 675.856 182.99 673.218C182.492 672.03 179.768 671.496 178.625 669.798C174.246 663.307 168.82 657.471 165.272 650.453C163.614 647.172 161.84 643.914 160.243 640.644C158.602 637.294 157.416 633.701 156.372 630.443C154.378 624.21 151.136 618.014 151.24 611.445C151.268 609.647 150.341 608.008 149.781 606.534C146.965 599.111 145.859 591.474 144.043 583.957C141.817 574.75 142.258 565.489 142.002 556.276C141.512 538.716 144.583 521.882 147.023 504.947C147.803 499.536 150.058 494.51 151.496 489.256C151.868 487.898 151.708 486.341 151.802 484.681L157.097 479.733C155.371 473.596 156.584 467.768 158.613 462.258C160.266 457.774 161.116 453.038 162.451 448.46C163.717 444.115 165.087 439.806 166.584 435.557C167.857 431.95 167.341 427.549 170.325 424.704C169.271 422.308 173.329 423.994 172.289 422.564C171.04 420.854 172.025 420.09 172.13 418.792C172.252 417.283 172.9 416.054 173.364 414.865C175.418 409.594 176.011 403.622 178.393 398.688C180.866 393.571 181.512 387.692 184.259 382.905C186.939 378.233 186.461 371.831 191.209 368.368C191.331 368.279 191.194 367.881 191.216 367.638C191.832 360.748 196.878 356.056 198.471 349.51C199.384 345.754 202.292 342.51 204.039 338.848C207.702 331.18 211.443 323.536 215.569 316.147C218.844 310.28 221.941 304.298 225.569 298.63C229.541 292.42 234.04 286.542 237.094 279.681C237.83 278.027 239.47 276.717 241.002 275.665C242.713 274.49 242.189 272.304 243.448 270.799C245.632 268.189 247.374 265.23 249.812 262.734C252.004 260.491 253.807 257.679 255.449 255.052C257.725 251.405 260.636 248.587 263.55 245.634C265.461 243.698 265.785 240.63 268.241 238.933C270.271 237.533 272.593 236.038 272.565 232.883C272.562 232.518 273.236 232.243 273.559 231.897C279.791 225.224 285.212 217.788 292.403 212.022C293.798 210.904 295.485 209.95 295.223 207.406C295.039 205.633 297.449 206.991 298.392 205.798C300.926 202.585 302.455 198.128 307.575 197.725C307.412 194.85 309.74 193.777 311.337 192.22C314.419 189.223 317.075 185.337 320.89 183.672C324.79 181.968 327.322 179.133 330.29 176.614C333.568 173.833 336.418 170.555 339.804 167.916C342.3 165.971 345.441 164.94 347.856 162.675C350.157 160.516 351.581 156.991 355.625 156.975C355.329 152.982 360.079 154.663 361.172 152.227C362.377 149.549 366.032 150.778 367.702 148.49C369.372 146.201 371.525 144.104 373.944 142.623C380.036 138.903 385.318 134.052 391.591 130.708C394.813 128.989 398.963 128.285 402.697 128.777C404.768 127.287 402.536 126.389 402.435 124.89C403.814 123.869 404.806 122.4 407.118 121.634C410.042 120.664 412.937 119.158 415.554 117.181C418.638 114.845 421.887 111.749 426.874 112.893C432.22 107.028 439.712 104.441 447.09 101.903C455.401 99.0434 463.96 96.7038 472.55 94.5179C482.624 91.951 493.22 92.402 503.875 93.962C508.498 94.6377 509.627 96.069 510.464 100.587C506.196 101.673 501.977 102.64 497.233 102.029C494.764 101.713 492.096 102.52 489.83 103.441C480.008 107.426 469.854 110.69 460.717 116.136C456.808 118.468 452.733 121.043 448.012 122.326C446.283 122.793 445.054 124.585 443.232 126.07C441.231 125.902 438.791 125.692 437.048 125.547C434.509 127.381 437.907 128.584 436.937 129.92C429.522 132.168 429.522 132.168 428.079 135.457C427.222 134.977 426.363 134.502 425.477 134.011C425.171 135.24 426.012 136.827 423.858 137.187C423.402 136.933 422.547 136.451 421.603 135.922C421.195 138.75 419.034 139.286 416.782 140.4C414.996 141.28 415.095 145.065 412.221 145.883C411.589 145.451 410.968 145.033 410.039 144.401C409.397 146.885 408.522 149.017 405.135 148.507C402.147 148.053 400.345 150.554 397.93 150.85C397.808 152.363 398.578 152.748 399.132 153.264C401.074 153.956 401.135 150.64 404.119 152.113C399.318 155.177 396.959 160.272 391.217 161.919C389.538 162.4 388.63 162.8 386.862 161.943C385.718 161.387 383.763 160.921 383.114 163.012C384.306 164.719 386.195 163.124 388.059 164.802C383.565 167.833 380.968 172.751 375.638 174.894C374.364 175.405 374.549 178.729 372.633 178.624C370.111 178.483 369.235 180.135 367.862 181.296C366.039 182.838 364.585 185.725 362.553 185.886C359.542 186.129 360.704 189.247 358.77 189.774C358.556 189.832 358.33 190.047 358.255 190.254C357.523 192.281 355.12 190.637 353.767 191.971C352.492 193.227 352.283 195.932 350.959 195.941C348.313 195.952 348.869 199.071 348.369 198.944C345.157 198.126 346.829 201.216 345.818 202.169C343.289 204.54 340.862 204.149 338.069 202.53C334.631 204.373 336.456 207.871 336.091 210.77C335.465 210.757 334.682 210.534 334.121 210.76C332.18 211.543 333.443 214.482 331.432 215.331C330.21 215.85 329.109 216.01 328.37 217.796C327.364 220.233 324.824 222.355 321.179 219.302C320.395 218.647 319.406 219.552 319.198 220.651C319.569 221.938 320.919 220.746 321.06 221.05C321.304 222.714 321.452 223.72 321.676 225.245C318.546 224.871 316.709 226.612 315.085 228.438C313.238 227.617 311.733 226.411 309.919 226.813C309.261 227.893 310.541 228.443 310.871 229.311C310.677 231.381 308.267 231.838 307.387 233.695C309.903 235.043 309.888 231.585 311.761 232.316C313.107 234.668 310.754 236.213 311.132 238.357C308.546 239.064 305.537 238.917 303.729 241.205C302.198 243.141 299.067 243.893 299.474 247.457C298.565 246.949 297.708 246.473 296.852 245.995C296.666 246.043 296.478 246.094 296.292 246.142C297.663 248.447 296.05 250.949 297.603 253.27C295.722 253.414 294.162 251.028 292.311 252.357C292.744 253.642 291.235 254.568 291.23 255.975C291.219 258.492 291.358 261.026 291.438 263.684C289.483 265.071 288.446 267.924 285.068 267.641C284.764 268.555 286.064 269.143 286.249 270.09C286.415 270.756 286.118 270.989 285.401 270.66C283.458 269.764 281.533 268.826 279.804 268.004C278.915 268.738 278.462 269.254 278.597 269.585C279.407 272.491 282.654 270.025 283.008 272.966C283.194 275.225 281.361 274.529 279.946 274.473C279.597 275.595 280.914 276.184 281.1 277.251C280.432 279.376 278.282 280.434 277.501 282.882C276.818 285.029 274.523 287.663 271.012 287.67C269.829 287.675 268.527 288.799 268.633 289.909C269.044 294.033 265.119 292.89 263.225 294.284C263.683 295.489 264.104 296.6 264.52 297.691L262.229 299.831C264.859 303.648 263.575 306.231 260.205 308.054L256.354 307.72C255.554 309.74 258.932 310.19 258.31 312.566C254.286 312.45 252.817 315.307 252.164 319.123" fill="url(#paint0_radial_34_37)" fill-opacity="0.17" shape-rendering="crispEdges"/>
</g>
<defs>
<filter id="filter0_d_34_37" x="44.9498" y="0.692139" width="568.514" height="807.273" filterUnits="userSpaceOnUse" color-interpolation-filters="sRGB">
<feFlood flood-opacity="0" result="BackgroundImageFix"/>
<feColorMatrix in="SourceAlpha" type="matrix" values="0 0 0 0 0 0 0 0 0 0 0 0 0 0 0 0 0 0 127 0" result="hardAlpha"/>
<feOffset dx="3" dy="8"/>
<feGaussianBlur stdDeviation="50"/>
<feComposite in2="hardAlpha" operator="out"/>
<feColorMatrix type="matrix" values="0 0 0 0 0.566667 0 0 0 0 0.566667 0 0 0 0 0.566667 0 0 0 0.35 0"/>
<feBlend mode="normal" in2="BackgroundImageFix" result="effect1_dropShadow_34_37"/>
<feBlend mode="normal" in="SourceGraphic" in2="effect1_dropShadow_34_37" result="shape"/>
</filter>
<radialGradient id="paint0_radial_34_37" cx="0" cy="0" r="1" gradientUnits="userSpaceOnUse" gradientTransform="translate(292.183 281.744) rotate(100.749) scale(572.772 890.465)">
<stop stop-color="#DACB97" stop-opacity="0.99"/>
<stop offset="1" stop-color="#8CD181"/>
</radialGradient>
</defs>
</svg>
